<svg width="350" height="133" viewBox="0 0 350 133"  fill="white" xmlns="http://www.w3.org/2000/svg">
<path d="M103.506 9.55566H34.3582C15.3825 9.55566 0 23.9335 0 41.675V63.1734C0 80.9095 15.3825 95.2927 34.3582 95.2927H50.1776C50.1776 95.2545 84.1152 95.1726 84.1152 95.1726V127.194C84.1152 129.613 85.7698 131.726 88.238 132.447C90.7062 133.151 93.3764 132.288 94.8454 130.306C97.5702 126.631 100.295 122.951 103.02 119.276C108.59 111.756 114.165 104.237 119.735 96.7179C124.267 90.602 128.799 84.4862 133.332 78.3703C137.646 72.5493 138.028 66.488 138.093 59.6295C138.137 55.4084 138.093 51.1928 137.968 46.9718C137.853 43.133 138.006 39.0812 137.192 35.3079C135.975 29.6616 133.102 24.3703 128.958 20.1056C122.482 13.4382 113.144 9.56659 103.511 9.56659L103.506 9.55566ZM11.6857 63.1679V41.6695C11.6857 29.9838 21.8588 20.4714 34.3582 20.4714H103.506C116.011 20.4714 126.178 29.9783 126.178 41.6695V63.1679C126.178 64.473 126.036 65.7453 125.791 66.9849L95.79 66.8375V34.9912C95.79 32.5721 94.1355 30.4643 91.6673 29.7381C89.1991 29.0337 86.5288 29.8964 85.0545 31.8786L46.164 84.366H34.3527C21.8479 84.366 11.6802 74.8591 11.6802 63.1679H11.6857ZM118.817 78.7634L96.5654 108.797C96.3306 109.114 95.7955 108.961 95.7955 108.573V89.7393C95.7955 86.7032 93.1635 84.2404 89.9144 84.2404H61.4046C61.0114 84.2404 60.7821 83.8254 61.0059 83.5251L83.3835 53.3279C83.6074 53.0221 84.1152 53.175 84.1152 53.5409V70.8401C84.1152 70.9711 84.1098 71.3316 84.1043 71.6537C84.0716 77.4474 89.494 77.715 89.7233 77.7259L118.315 77.8679C118.807 77.8679 119.096 78.3867 118.817 78.7634Z" />
<path d="M349.255 92.1261L329.57 72.4406L331.672 70.6058L347.939 56.6977H338.754L324.743 67.6789L324.584 56.4355H316.978V92.1807H324.846L324.759 77.5845L339.546 92.1261H349.255Z" />
<path d="M182.134 12.2481V12.756C182.134 14.7327 182.516 16.8514 183.291 19.1121H182.134C181.025 16.8514 179.485 14.9948 177.508 13.5477C175.532 12.1007 172.861 11.3799 169.492 11.3799C166.123 11.3799 163.185 12.27 160.826 14.0501C158.467 15.8303 156.709 18.1292 155.551 20.9469C154.394 23.7645 153.82 26.7351 153.82 29.8695C153.82 33.0039 154.399 35.9745 155.551 38.7921C156.704 41.6098 158.478 43.9087 160.859 45.6889C163.24 47.4691 166.194 48.3591 169.705 48.3591C172.741 48.3591 175.22 47.7202 177.143 46.4479C179.07 45.1701 180.583 43.4992 181.691 41.4296C181.833 41.1894 181.981 40.9218 182.123 40.6378H183.28C182.51 43.2862 182.123 46.1039 182.123 49.0909V67.5805H189.926V12.2481H182.123H182.134ZM179.316 38.1041C177.437 40.2228 174.958 41.2822 171.879 41.2822C169.858 41.2822 168.062 40.8016 166.5 39.8351C164.933 38.8741 163.731 37.5253 162.89 35.7888C162.049 34.0578 161.629 32.0811 161.629 29.864C161.629 26.4949 162.568 23.7482 164.447 21.6294C166.325 19.5107 168.804 18.4514 171.884 18.4514C174.964 18.4514 177.448 19.5107 179.321 21.6294C181.2 23.7482 182.139 26.4949 182.139 29.864C182.139 33.2332 181.2 35.9799 179.321 38.0986L179.316 38.1041Z" />
<path d="M330.624 47.7745L310.938 28.089L313.041 26.2543L329.308 12.3461H320.123L306.111 23.3328L305.953 12.084H298.341V47.8346H306.215L306.128 33.2329L320.91 47.7745H330.624Z" />
<path d="M197.444 32.7359V12.5098H205.248V32.157C205.248 34.9529 205.859 37.2627 207.088 39.092C208.316 40.9213 210.255 41.9807 212.903 42.2701C215.071 42.5104 216.901 42.2209 218.391 41.4019C219.882 40.5828 221.051 39.4033 221.897 37.8634C222.738 36.3235 223.278 34.5433 223.524 32.5174C223.715 29.6288 223.814 26.7128 223.814 23.7805V12.5152H231.617V47.7635H223.814V45.956C223.814 44.8475 223.983 43.6079 224.321 42.2373C224.66 40.8667 225.042 39.578 225.479 38.3712H224.398C223.721 41.0196 222.541 43.1875 220.859 44.8693C219.172 46.5567 217.212 47.6761 214.973 48.2276C212.734 48.7791 210.484 48.7955 208.218 48.2658C205.81 47.687 203.8 46.5676 202.19 44.9076C200.573 43.2475 199.383 41.3472 198.613 39.2012C197.843 37.0607 197.455 34.9037 197.455 32.7359H197.444Z" />
<path d="M251.429 15.186V47.764H243.626V21.0397C243.626 20.6083 243.484 20.2589 243.194 19.9913C242.905 19.7292 242.566 19.5927 242.184 19.5927H239.006V12.5157H248.759C249.479 12.5157 250.107 12.7669 250.637 13.2747C251.167 13.7826 251.429 14.4215 251.429 15.1914V15.186ZM247.311 7.94519C248.371 7.94519 249.299 7.54656 250.091 6.75477C250.888 5.96299 251.281 5.03468 251.281 3.97532C251.281 2.91597 250.883 1.9276 250.091 1.15765C249.294 0.387703 248.371 0 247.311 0C246.154 0 245.182 0.387703 244.385 1.15765C243.587 1.9276 243.194 2.86682 243.194 3.97532C243.194 5.08383 243.593 5.96299 244.385 6.75477C245.176 7.55202 246.154 7.94519 247.311 7.94519Z" />
<path d="M283.619 36.2748H291.853C290.936 39.7914 289.118 42.7293 286.398 45.0882C283.679 47.4472 280.004 48.6267 275.384 48.6267C271.436 48.6267 268.16 47.7257 265.561 45.9182C262.961 44.1108 261.056 41.801 259.854 38.9833C258.648 36.1656 258.047 33.2169 258.047 30.1371C258.047 27.0573 258.648 24.1086 259.854 21.2909C261.056 18.4732 262.961 16.1634 265.561 14.3559C268.16 12.5485 271.436 11.6475 275.384 11.6475C278.513 11.6475 281.211 12.2263 283.471 13.3785C285.732 14.5361 287.551 16.0487 288.927 17.9272C290.297 19.8056 291.275 21.8533 291.853 24.0649H283.619C282.991 22.525 281.992 21.2472 280.621 20.237C279.25 19.2268 277.503 18.719 275.384 18.719C273.266 18.719 271.425 19.2705 270.006 20.379C268.586 21.4875 267.537 22.9072 266.866 24.6383C266.189 26.3693 265.856 28.204 265.856 30.1262C265.856 32.0483 266.194 33.8831 266.866 35.6141C267.537 37.3451 268.586 38.7703 270.006 39.8734C271.425 40.9819 273.222 41.5334 275.384 41.5334C277.547 41.5334 279.234 41.0419 280.583 40.0536C281.932 39.0652 282.942 37.8038 283.619 36.2639V36.2748Z" />
<path d="M187.234 81.1342C187.234 83.3512 186.622 85.3607 185.399 87.1627C184.176 88.9702 182.363 90.3899 179.96 91.422C177.563 92.4595 174.712 92.9728 171.409 92.9728C168.105 92.9728 165.271 92.4541 162.896 91.422C160.52 90.3845 158.707 88.9811 157.457 87.1955C156.206 85.4153 155.584 83.4167 155.584 81.1997H163.01C163.01 82.9799 163.786 84.3177 165.337 85.2078C166.887 86.0979 168.935 86.5457 171.485 86.5457C172.785 86.5457 174.035 86.3655 175.237 86.0051C176.438 85.6447 177.41 85.0768 178.164 84.3068C178.912 83.5369 179.288 82.5485 179.288 81.3472C179.288 80.1458 178.89 79.2175 178.087 78.5677C177.284 77.9179 176.285 77.4592 175.089 77.1971C173.888 76.935 172.266 76.6784 170.213 76.4381C167.313 76.0995 164.927 75.7064 163.049 75.2477C161.176 74.789 159.576 73.8989 158.249 72.5774C156.922 71.256 156.261 69.3611 156.261 66.9093C156.261 64.8397 156.862 62.9831 158.063 61.345C159.264 59.7068 161.001 58.4071 163.278 57.4461C165.555 56.485 168.291 55.999 171.491 55.999C174.691 55.999 177.339 56.4796 179.589 57.4461C181.839 58.4126 183.564 59.7122 184.765 61.345C185.967 62.9831 186.567 64.8343 186.567 66.9093V67.4881H179.141V66.9093C179.141 65.4623 178.431 64.3592 177.006 63.5893C175.581 62.8193 173.768 62.4316 171.567 62.4316C169.569 62.4316 167.843 62.8029 166.391 63.551C164.938 64.2991 164.217 65.3913 164.217 66.8383C164.217 67.7066 164.556 68.3782 165.227 68.8588C165.905 69.3393 166.8 69.6888 167.925 69.9072C169.05 70.1256 170.41 70.355 172.015 70.5952C175.117 70.9338 177.678 71.3543 179.703 71.8566C181.729 72.3645 183.493 73.3474 184.989 74.8163C186.491 76.2852 187.239 78.393 187.239 81.1342H187.234Z" />
<path d="M228.019 83.6675C226.861 86.4852 225.092 88.7841 222.711 90.5643C220.325 92.3445 217.376 93.2345 213.865 93.2345C210.588 93.2345 207.967 92.4974 205.991 91.0339C204.014 89.565 202.501 87.7248 201.442 85.5078H200.284C201.054 88.1562 201.442 90.9738 201.442 93.9608V112.45H193.639V57.1235H201.442V57.6314C201.442 58.6907 201.322 59.7719 201.081 60.8804C200.841 61.9889 200.574 63.021 200.29 63.9875H201.447C201.546 63.6981 201.688 63.365 201.879 62.9773C202.649 61.7268 203.55 60.6074 204.587 59.619C205.625 58.6306 206.935 57.8279 208.524 57.2C210.113 56.572 211.964 56.2607 214.089 56.2607C217.556 56.2607 220.467 57.1508 222.826 58.931C225.185 60.7111 226.932 63.0101 228.062 65.8277C229.193 68.6454 229.761 71.616 229.761 74.7504C229.761 77.8848 229.182 80.8553 228.03 83.673L228.019 83.6675ZM219.172 66.5158C217.316 64.3971 214.826 63.3377 211.697 63.3377C209.676 63.3377 207.88 63.8182 206.318 64.7848C204.751 65.7458 203.55 67.0946 202.709 68.8311C201.868 70.5621 201.447 72.5388 201.447 74.7558C201.447 78.125 202.387 80.8717 204.265 82.9904C206.143 85.1091 208.623 86.1685 211.702 86.1685C213.723 86.1685 215.519 85.688 217.081 84.7214C218.643 83.7604 219.85 82.4116 220.691 80.6751C221.531 78.9441 221.952 76.9674 221.952 74.7504C221.952 71.3812 221.024 68.6345 219.172 66.5158Z" />
<path d="M242.134 80.9486C242.806 82.5157 243.881 83.8372 245.35 84.9239C246.819 86.0051 248.687 86.5511 250.947 86.5511C253.208 86.5511 255.218 85.9832 256.692 84.8529C258.161 83.7225 259.258 82.1936 259.979 80.266H267.564C266.794 83.586 265.096 86.5402 262.469 89.1122C259.843 91.6896 256.026 92.9783 251.018 92.9783C247.07 92.9783 243.783 92.0773 241.157 90.2698C238.53 88.4623 236.619 86.1525 235.412 83.3348C234.205 80.5172 233.604 77.5684 233.604 74.4887C233.604 71.4089 234.205 68.4601 235.412 65.6425C236.613 62.8248 238.53 60.5149 241.157 58.7075C243.783 56.9 247.065 55.999 251.018 55.999C254.972 55.999 258.265 56.9164 260.913 58.7457C263.561 60.575 265.5 63.0323 266.729 66.1121C267.957 69.1919 268.476 72.5665 268.279 76.2251H240.905C241.047 77.8142 241.457 79.3923 242.134 80.954V80.9486ZM245.891 63.7586C244.493 64.6486 243.412 65.779 242.642 67.1551C241.872 68.5257 241.364 69.9618 241.124 71.4526L260.771 71.5235C260.629 70.0765 260.17 68.6567 259.4 67.2643C258.63 65.8663 257.533 64.7142 256.113 63.7968C254.693 62.8849 252.973 62.4262 250.947 62.4262C248.922 62.4262 247.289 62.8739 245.891 63.764V63.7586Z" />
<path d="M310.949 92.1806H305.314C303.916 92.1806 302.824 91.7602 302.027 90.9192C301.229 90.0783 300.836 89.0026 300.836 87.7029C300.836 86.6927 300.956 85.6934 301.197 84.7051C301.437 83.7167 301.705 82.8375 301.988 82.0676H300.831C300.301 83.6075 299.504 85.1255 298.45 86.6163C297.391 88.107 296.162 89.3138 294.764 90.2257C292.935 91.3834 290.985 92.1752 288.916 92.612C286.846 93.0434 284.678 93.1199 282.418 92.8304C280.779 92.6393 279.24 92.0987 277.792 91.2032C276.345 90.3131 275.193 89.1227 274.325 87.6265C273.457 86.1357 273.025 84.4757 273.025 82.6409C273.025 79.7523 273.806 77.5134 275.373 75.9244C276.935 74.3354 278.972 73.2542 281.478 72.6753C282.636 72.3859 283.865 72.1566 285.164 71.9873C286.464 71.818 287.665 71.6597 288.774 71.5177C290.745 71.2774 292.29 71.059 293.399 70.8679L294.338 70.6494C295.829 70.36 296.916 69.9887 297.587 69.53C298.259 69.0713 298.477 68.3123 298.237 67.2529C298.046 66.341 297.56 65.5055 296.79 64.7629C296.02 64.0148 295.043 63.4414 293.863 63.0319C292.684 62.6223 291.346 62.4203 289.855 62.4203C288.026 62.4203 286.437 62.7316 285.088 63.3595C283.739 63.9875 282.707 64.8284 281.981 65.8878C281.26 66.9472 280.9 68.0775 280.9 69.2843H273.315C273.315 67.0236 273.954 64.8667 275.231 62.8189C276.509 60.7712 278.399 59.1221 280.9 57.8716C283.401 56.6211 286.437 55.9932 290.002 55.9932C293.568 55.9932 296.528 56.6321 299.029 57.9098C301.53 59.1876 303.408 60.8586 304.664 62.9281C305.915 64.9977 306.543 67.2639 306.543 69.7157V83.5856C306.543 83.9733 306.701 84.3228 307.012 84.6341C307.323 84.9453 307.7 85.1037 308.132 85.1037H310.949V92.1806ZM296.288 73.9422C295.081 74.2534 293.492 74.5811 291.52 74.9196C289.981 75.209 288.271 75.4985 286.393 75.7879C284.853 76.0281 283.477 76.6452 282.276 77.6281C281.069 78.6165 280.468 79.8779 280.468 81.4178C280.468 82.8648 280.976 84.0771 281.986 85.0655C282.996 86.0538 284.225 86.6654 285.672 86.9057C287.212 87.0477 288.539 87.0477 289.647 86.9057C290.756 86.7637 292.006 86.305 293.404 85.5351C294.851 84.716 296.015 83.6839 296.91 82.428C297.8 81.1775 298.341 79.8779 298.537 78.5291C298.679 77.6172 298.756 76.6288 298.756 75.5695V72.9702C298.324 73.3088 297.505 73.6309 296.299 73.9476L296.288 73.9422Z" />
</svg>
