<svg width="871" height="144" viewBox="0 0 871 144" fill="none" xmlns="http://www.w3.org/2000/svg">
<path d="M425.927 99.4108L384.973 58.4562L389.341 54.6338L423.197 25.6925H404.085L374.931 48.5452L374.597 25.1465H358.762V99.5309H375.144L374.952 69.1535L405.723 99.4108H425.927Z" fill="black"/>
<path d="M870.421 99.4108L829.467 58.4562L833.835 54.6338L867.691 25.6925H848.579L819.425 48.5452L819.092 25.1465H803.256V99.5309H819.638L819.447 69.1535L850.217 99.4108H870.421Z" fill="black"/>
<path d="M152.083 68.1207V26.0357H168.317V66.9139C168.317 72.724 169.595 77.5348 172.151 81.3408C174.706 85.1523 178.736 87.3529 184.251 87.9536C188.762 88.456 192.568 87.8553 195.675 86.1516C198.782 84.4479 201.212 81.9961 202.965 78.7852C204.718 75.5799 205.843 71.8721 206.345 67.662C206.744 61.6498 206.946 55.5886 206.946 49.4781V26.0303H223.18V99.3772H206.946V95.6203C206.946 93.3159 207.295 90.7331 208 87.8826C208.699 85.0267 209.501 82.3456 210.402 79.8391H208.147C206.744 85.3489 204.286 89.8594 200.781 93.3651C197.27 96.8708 193.19 99.2025 188.533 100.355C183.875 101.507 179.189 101.529 174.482 100.431C169.47 99.2298 165.287 96.8981 161.934 93.4415C158.576 89.9849 156.097 86.026 154.497 81.5702C152.891 77.1143 152.094 72.6257 152.094 68.1207H152.083Z" fill="black"/>
<path d="M262.781 31.5951V99.3777H246.547V43.7668C246.547 42.8658 246.246 42.1395 245.646 41.588C245.045 41.0365 244.341 40.7635 243.543 40.7635H236.931V26.0362H257.222C258.724 26.0362 260.024 26.5604 261.132 27.6143C262.235 28.6682 262.787 29.9951 262.787 31.5951H262.781ZM254.213 16.5293C256.414 16.5293 258.347 15.7047 260.002 14.0502C261.656 12.3956 262.481 10.468 262.481 8.2619C262.481 6.05582 261.656 4.00263 260.002 2.40267C258.347 0.80271 256.42 0 254.213 0C251.811 0 249.779 0.80271 248.125 2.40267C246.47 4.00809 245.646 5.96299 245.646 8.2619C245.646 10.5608 246.47 12.3956 248.125 14.0502C249.779 15.7047 251.805 16.5293 254.213 16.5293Z" fill="black"/>
<path d="M329.755 75.4822H346.89C344.985 82.7994 341.2 88.9098 335.543 93.8189C329.88 98.728 322.241 101.185 312.625 101.185C304.407 101.185 297.597 99.3068 292.186 95.5499C286.774 91.793 282.815 86.9822 280.315 81.123C277.808 75.2638 276.558 69.126 276.558 62.7098C276.558 56.2936 277.808 50.1614 280.315 44.2967C282.815 38.4374 286.774 33.6266 292.186 29.8697C297.597 26.1128 304.407 24.2344 312.625 24.2344C319.139 24.2344 324.748 25.4357 329.46 27.8438C334.167 30.2465 337.951 33.4027 340.807 37.3125C343.663 41.2223 345.694 45.4816 346.896 50.0904H329.76C328.455 46.885 326.38 44.2311 323.524 42.1233C320.668 40.021 317.037 38.9671 312.63 38.9671C308.224 38.9671 304.385 40.1193 301.436 42.4237C298.482 44.728 296.298 47.6822 294.9 51.2917C293.496 54.9012 292.797 58.7072 292.797 62.7153C292.797 66.7234 293.496 70.5294 294.9 74.1389C296.303 77.7484 298.482 80.7025 301.436 83.0069C304.39 85.3113 308.125 86.4635 312.63 86.4635C317.135 86.4635 320.647 85.4369 323.453 83.3837C326.255 81.3305 328.362 78.6985 329.766 75.4931L329.755 75.4822Z" fill="black"/>
<path d="M532.191 76.5359C532.191 81.1447 530.962 85.3275 528.511 89.0844C526.053 92.8413 522.422 95.801 517.617 97.9525C512.811 100.104 507.094 101.185 500.481 101.185C493.868 101.185 488.178 100.109 483.422 97.9525C478.661 95.801 475.029 92.8686 472.528 89.1609C470.022 85.4531 468.771 81.2976 468.771 76.6888H483.652C483.652 80.3966 485.202 83.176 488.31 85.0326C491.417 86.8892 495.523 87.8121 500.634 87.8121C503.239 87.8121 505.745 87.4353 508.148 86.6872C510.551 85.9336 512.505 84.7596 514.007 83.1542C515.509 81.5542 516.262 79.4956 516.262 76.9946C516.262 74.4937 515.46 72.5606 513.86 71.2064C512.254 69.8521 510.25 68.902 507.848 68.3505C505.445 67.7989 502.185 67.2747 498.079 66.7724C492.268 66.0734 487.485 65.2434 483.723 64.2932C479.966 63.3431 476.755 61.4919 474.101 58.7343C471.447 55.9822 470.12 52.0451 470.12 46.934C470.12 42.6255 471.322 38.7703 473.73 35.3629C476.132 31.9555 479.616 29.2525 484.176 27.2485C488.735 25.2444 494.218 24.2451 500.634 24.2451C507.05 24.2451 512.358 25.2499 516.869 27.2485C521.379 29.2525 524.836 31.961 527.238 35.3629C529.641 38.7703 530.848 42.631 530.848 46.934V48.1353H515.968V46.934C515.968 43.9306 514.542 41.6262 511.686 40.0208C508.831 38.4209 505.199 37.6182 500.792 37.6182C496.784 37.6182 493.328 38.3936 490.423 39.9498C487.518 41.5061 486.065 43.7832 486.065 46.7865C486.065 48.5885 486.742 49.9919 488.097 50.9966C489.451 52.0014 491.253 52.7277 493.508 53.1754C495.763 53.6232 498.494 54.1037 501.699 54.6007C507.913 55.3051 513.046 56.1788 517.103 57.2327C521.161 58.2866 524.694 60.3398 527.697 63.3922C530.7 66.4502 532.207 70.8296 532.207 76.5414L532.191 76.5359Z" fill="black"/>
<path d="M617.601 81.8163C615.198 87.6756 611.512 92.4645 606.554 96.1723C601.596 99.88 595.458 101.731 588.141 101.731C581.326 101.731 575.865 100.202 571.759 97.1497C567.647 94.0918 564.491 90.2639 562.29 85.6497H559.887C561.487 91.1595 562.29 97.0241 562.29 103.233V141.708H546.056V26.5823H562.29V27.6362C562.29 29.8423 562.039 32.0975 561.536 34.4019C561.034 36.7062 560.483 38.8632 559.882 40.8618H562.285C562.487 40.2611 562.787 39.5621 563.186 38.7594C564.786 36.1547 566.664 33.823 568.821 31.7699C570.972 29.7167 573.708 28.0403 577.012 26.7352C580.321 25.4355 584.176 24.7803 588.583 24.7803C595.796 24.7803 601.858 26.6369 606.767 30.3392C611.676 34.0469 615.307 38.8304 617.666 44.6951C620.02 50.5544 621.199 56.7467 621.199 63.2557C621.199 69.7648 619.998 75.9571 617.59 81.8163H617.601ZM599.187 46.1203C595.327 41.7136 590.145 39.5075 583.63 39.5075C579.42 39.5075 575.69 40.5123 572.436 42.5109C569.181 44.5149 566.675 47.3217 564.922 50.9257C563.169 54.5351 562.29 58.6415 562.29 63.2503C562.29 70.2672 564.245 75.979 568.149 80.3857C572.059 84.7978 577.214 86.9985 583.63 86.9985C587.84 86.9985 591.57 85.9992 594.83 83.9951C598.084 81.9911 600.591 79.1843 602.344 75.5803C604.096 71.9709 604.976 67.8645 604.976 63.2557C604.976 56.2443 603.043 50.5325 599.187 46.1203Z" fill="black"/>
<path d="M648.07 76.1593C649.474 79.4193 651.702 82.1714 654.76 84.4267C657.818 86.6819 661.695 87.8068 666.407 87.8068C671.12 87.8068 675.297 86.6328 678.355 84.2738C681.413 81.9203 683.69 78.7367 685.192 74.7286H700.973C699.367 81.6418 695.834 87.7795 690.379 93.1418C684.919 98.5041 676.979 101.185 666.56 101.185C658.342 101.185 651.505 99.3068 646.045 95.5499C640.584 91.793 636.598 86.9822 634.097 81.123C631.59 75.2638 630.34 69.126 630.34 62.7098C630.34 56.2936 631.59 50.1614 634.097 44.2967C636.598 38.4374 640.584 33.6266 646.045 29.8697C651.505 26.1128 658.342 24.2344 666.56 24.2344C674.778 24.2344 681.637 26.1401 687.152 29.9462C692.662 33.7577 696.697 38.8634 699.253 45.2741C701.808 51.6849 702.884 58.7017 702.485 66.3138H645.526C645.826 69.623 646.678 72.9048 648.081 76.1593H648.07ZM655.885 40.3869C652.98 42.2435 650.724 44.597 649.119 47.4529C647.513 50.3088 646.465 53.2903 645.963 56.3974L686.841 56.5448C686.541 53.5415 685.585 50.5873 683.985 47.6768C682.379 44.7717 680.102 42.3691 677.148 40.4633C674.194 38.563 670.612 37.6074 666.402 37.6074C662.192 37.6074 658.784 38.5357 655.879 40.3869H655.885Z" fill="black"/>
<path d="M791.259 99.5309H779.535C776.63 99.5309 774.348 98.6572 772.699 96.8989C771.044 95.146 770.219 92.9181 770.219 90.2096C770.219 88.1073 770.471 86.0268 770.973 83.9736C771.475 81.9204 772.027 80.0911 772.628 78.4857H770.225C769.122 81.6911 767.467 84.8473 765.267 87.9544C763.061 91.0615 760.505 93.5679 757.6 95.4682C753.788 97.8709 749.731 99.5255 745.428 100.426C741.12 101.327 736.609 101.48 731.902 100.88C728.495 100.476 725.289 99.3507 722.281 97.4996C719.277 95.6484 716.869 93.1693 715.067 90.0622C713.265 86.9551 712.364 83.4986 712.364 79.6925C712.364 73.6804 713.991 69.0225 717.251 65.7133C720.506 62.4042 724.738 60.1544 729.953 58.9477C732.356 58.347 734.911 57.8719 737.62 57.5224C740.323 57.173 742.829 56.8453 745.133 56.545C749.24 56.0426 752.445 55.5948 754.755 55.1908L756.71 54.7375C759.817 54.1369 762.067 53.3615 763.476 52.4058C764.879 51.4557 765.327 49.8776 764.83 47.6715C764.426 45.7712 763.426 44.0402 761.826 42.4839C760.221 40.9331 758.195 39.7318 755.738 38.8745C753.281 38.0226 750.501 37.5967 747.394 37.5967C743.583 37.5967 740.279 38.2519 737.472 39.5516C734.665 40.8567 732.514 42.6095 731.012 44.8101C729.511 47.0162 728.757 49.3697 728.757 51.8762H712.976C712.976 47.1691 714.303 42.686 716.957 38.4267C719.61 34.1674 723.542 30.7381 728.757 28.1334C733.966 25.5287 740.279 24.2236 747.694 24.2236C755.11 24.2236 761.269 25.5506 766.479 28.2044C771.688 30.8583 775.593 34.3421 778.203 38.6506C780.808 42.959 782.113 47.666 782.113 52.7772V81.6365C782.113 82.4392 782.435 83.1655 783.09 83.8153C783.74 84.4705 784.515 84.7927 785.422 84.7927H791.281V99.52L791.259 99.5309ZM760.751 61.5797C758.244 62.2349 754.941 62.9066 750.829 63.611C747.618 64.2117 744.063 64.8123 740.159 65.413C736.953 65.9154 734.097 67.1932 731.591 69.2464C729.085 71.2996 727.834 73.9316 727.834 77.1369C727.834 80.1403 728.888 82.674 730.99 84.7272C733.093 86.7804 735.648 88.0582 738.657 88.5605C741.862 88.8609 744.62 88.8609 746.924 88.5605C749.229 88.2602 751.834 87.3101 754.739 85.7046C757.742 84.0009 760.172 81.8495 762.028 79.2393C763.88 76.6346 765.01 73.9316 765.409 71.1248C765.709 69.2245 765.862 67.1659 765.862 64.9652V59.5538C764.961 60.2582 763.257 60.9299 760.751 61.5851V61.5797Z" fill="black"/>
<path d="M103.506 19.959H34.3582C15.3825 19.959 0 34.3368 0 52.0728V73.5713C0 91.3073 15.3825 105.691 34.3582 105.691H50.1776C50.1776 105.652 84.1152 105.57 84.1152 105.57V137.591C84.1152 140.011 85.7698 142.124 88.238 142.845C90.7062 143.549 93.3764 142.686 94.8454 140.704C97.5702 137.029 100.295 133.349 103.02 129.674C108.59 122.154 114.165 114.635 119.735 107.116C124.267 101 128.799 94.884 133.332 88.7681C137.646 82.9471 138.028 76.8858 138.093 70.0273C138.137 65.8063 138.093 61.5907 137.968 57.3696C137.853 53.5308 138.006 49.479 137.192 45.7058C135.975 40.0595 133.102 34.7682 128.958 30.5034C122.482 23.836 113.144 19.9644 103.511 19.9644L103.506 19.959ZM11.6857 73.5713V52.0728C11.6857 40.3871 21.8588 30.8747 34.3582 30.8747H103.506C116.011 30.8747 126.178 40.3817 126.178 52.0728V73.5713C126.178 74.8763 126.036 76.1487 125.791 77.3882L95.79 77.2408V45.3945C95.79 42.9755 94.1355 40.8677 91.6673 40.1414C89.1991 39.437 86.5288 40.2998 85.0545 42.282L46.164 94.7693H34.3527C21.8479 94.7693 11.6802 85.2624 11.6802 73.5713H11.6857ZM118.817 89.1668L96.5654 119.2C96.3306 119.517 95.7955 119.364 95.7955 118.976V100.143C95.7955 97.1065 93.1635 94.6438 89.9144 94.6438H61.4046C61.0114 94.6438 60.7821 94.2287 61.0059 93.9284L83.3835 63.7312C83.6074 63.4254 84.1152 63.5783 84.1152 63.9442V81.2434C84.1152 81.3745 84.1098 81.7349 84.1043 82.057C84.0716 87.8508 89.494 88.1183 89.7233 88.1292L118.315 88.2712C118.807 88.2712 119.096 88.79 118.817 89.1668Z" fill="black"/>
</svg>
