<?xml version="1.0" encoding="UTF-8"?>
<!DOCTYPE svg PUBLIC "-//W3C//DTD SVG 1.1//EN" "http://www.w3.org/Graphics/SVG/1.1/DTD/svg11.dtd">
<!-- Creator: CorelDRAW X8 -->
<svg xmlns="http://www.w3.org/2000/svg" xml:space="preserve" width="79px" height="50px" version="1.1" style="shape-rendering:geometricPrecision; text-rendering:geometricPrecision; image-rendering:optimizeQuality; fill-rule:evenodd; clip-rule:evenodd"
viewBox="0 0 17123 10751"
 xmlns:xlink="http://www.w3.org/1999/xlink">
 <defs>
  <style type="text/css">
   <![CDATA[
    .fil3 {fill:#FEFEFE;fill-rule:nonzero}
    .fil2 {fill:#E63835;fill-rule:nonzero}
    .fil1 {fill:#FBF5FA;fill-rule:nonzero}
    .fil0 {fill:#3F4996;fill-rule:nonzero}
   ]]>
  </style>
 </defs>
 <g id="Слой_x0020_1">
  <metadata id="CorelCorpID_0Corel-Layer"/>
  <g id="_2671517015264">
   <polygon class="fil0" points="17115,24 17115,10743 17113,10745 15,10745 15,24 "/>
   <polygon class="fil1" points="17115,9627 17115,10743 17113,10745 15333,10745 10085,7455 9560,7125 8940,6736 8732,6605 8101,6211 7866,6062 7668,5940 7272,5692 7143,5611 6950,5490 5086,4319 4248,3795 15,1141 15,24 29,3 63,24 1794,24 7143,3377 7668,3707 7809,3795 8648,4319 8732,4373 9053,4575 9560,4892 9646,4947 10085,5222 10514,5490 11665,6211 12503,6736 "/>
   <polygon class="fil2" points="17117,10712 17120,10751 15976,10745 10085,7052 9583,6736 9560,6722 9053,6405 8747,6211 8187,5860 7668,5537 7595,5490 7272,5286 7143,5207 5730,4319 4893,3795 15,735 15,0 29,3 63,24 6078,3795 6914,4319 7143,4463 7668,4793 7866,4917 8187,5119 8780,5490 9560,5978 9646,6033 9931,6211 10085,6308 10768,6736 "/>
   <polygon class="fil1" points="17115,236 17115,1351 13215,3795 12379,4319 10514,5490 10085,5757 9646,6033 9560,6087 9362,6211 9053,6405 8732,6605 8524,6736 7668,7272 7143,7602 2128,10745 15,10745 15,9838 4963,6736 5799,6211 6950,5490 7143,5368 7272,5286 7668,5038 7866,4917 8732,4373 8816,4319 9560,3854 9654,3795 10085,3524 15669,24 16980,24 "/>
   <polygon class="fil2" points="17070,291 11482,3795 10644,4319 10085,4671 9646,4947 9560,5001 8780,5490 8187,5860 7866,6062 7668,6186 7629,6211 7143,6516 6791,6736 400,10745 15,10745 15,10243 5605,6736 6444,6211 7143,5772 7272,5692 7595,5490 7668,5442 8187,5119 9053,4575 9459,4319 9560,4257 10085,3927 10297,3795 16310,24 17115,24 17117,259 "/>
   <polygon class="fil3" points="0,6736 17123,6736 17123,3795 0,3795 "/>
   <polygon class="fil2" points="0,6211 17123,6211 17123,4319 0,4319 "/>
   <polygon class="fil3" points="9555,6736 10081,6736 10081,10745 7139,10745 7139,6736 7664,6736 7664,3795 7139,3795 7139,24 10081,24 10081,3795 9555,3795 "/>
   <polygon class="fil2" points="7654,10745 9565,10745 9565,24 7654,24 "/>
  </g>
 </g>
</svg>
