<?xml version="1.0" encoding="UTF-8"?>
<!DOCTYPE svg PUBLIC "-//W3C//DTD SVG 1.1//EN" "http://www.w3.org/Graphics/SVG/1.1/DTD/svg11.dtd">
<!-- Creator: CorelDRAW X8 -->
<svg xmlns="http://www.w3.org/2000/svg" xml:space="preserve" width="79px" height="50px" version="1.1" style="shape-rendering:geometricPrecision; text-rendering:geometricPrecision; image-rendering:optimizeQuality; fill-rule:evenodd; clip-rule:evenodd"
viewBox="0 0 2835 1780"
 xmlns:xlink="http://www.w3.org/1999/xlink">
 <defs>
  <style type="text/css">
   <![CDATA[
    .fil1 {fill:#FEFEFE;fill-rule:nonzero}
    .fil0 {fill:#E63837;fill-rule:nonzero}
   ]]>
  </style>
 </defs>
 <g id="Слой_x0020_1">
  <metadata id="CorelCorpID_0Corel-Layer"/>
  <g id="_3066052661872">
   <polygon class="fil0" points="0,1780 2835,1780 2835,0 0,0 "/>
   <polygon class="fil1" points="1364,695 1623,1086 1188,921 1637,800 1344,1161 "/>
   <path class="fil1" d="M1250 1157c-81,140 -196,198 -370,198 -260,0 -470,-211 -470,-471 0,-260 210,-471 470,-471 197,0 344,97 414,267 -65,-117 -170,-173 -313,-173 -212,0 -384,172 -384,384 0,212 172,383 384,383 125,0 199,-24 269,-117z"/>
  </g>
 </g>
</svg>
