<svg width="347" height="137" viewBox="0 0 347 137" fill="none" xmlns="http://www.w3.org/2000/svg">
<path d="M346.754 92.1261L327.074 72.4406L329.171 70.6058L345.444 56.6977H336.259L322.247 67.6789L322.089 56.4355H314.477V92.1807H322.351L322.258 77.5845L337.045 92.1261H346.754Z" fill="white"/>
<path d="M179.633 12.2481V12.756C179.633 14.7327 180.015 16.8514 180.79 19.1121H179.633C178.524 16.8514 176.984 14.9948 175.007 13.5477C173.031 12.1007 170.36 11.3799 166.991 11.3799C163.622 11.3799 160.684 12.27 158.325 14.0501C155.966 15.8303 154.208 18.1292 153.05 20.9469C151.893 23.7645 151.319 26.7351 151.319 29.8695C151.319 33.0039 151.898 35.9745 153.05 38.7921C154.203 41.6098 155.977 43.9087 158.358 45.6889C160.739 47.4691 163.693 48.3591 167.204 48.3591C170.24 48.3591 172.719 47.7202 174.642 46.4479C176.569 45.1701 178.082 43.4992 179.19 41.4296C179.332 41.1894 179.48 40.9218 179.622 40.6378H180.779C180.009 43.2862 179.622 46.1039 179.622 49.0909V67.5805H187.425V12.2481H179.622H179.633ZM176.815 38.1041C174.936 40.2228 172.457 41.2822 169.378 41.2822C167.357 41.2822 165.561 40.8016 163.999 39.8351C162.432 38.8741 161.23 37.5253 160.389 35.7888C159.548 34.0578 159.128 32.0811 159.128 29.864C159.128 26.4949 160.067 23.7482 161.946 21.6294C163.824 19.5107 166.303 18.4514 169.383 18.4514C172.463 18.4514 174.947 19.5107 176.82 21.6294C178.699 23.7482 179.638 26.4949 179.638 29.864C179.638 33.2332 178.699 35.9799 176.82 38.0986L176.815 38.1041Z" fill="white"/>
<path d="M328.122 47.7745L308.442 28.089L310.539 26.2543L326.812 12.3461H317.627L303.615 23.3328L303.451 12.084H295.845V47.8346H303.713L303.626 33.2329L318.413 47.7745H328.122Z" fill="white"/>
<path d="M194.943 32.7359V12.5098H202.747V32.157C202.747 34.9529 203.358 37.2627 204.587 39.092C205.815 40.9213 207.754 41.9807 210.402 42.2701C212.57 42.5104 214.4 42.2209 215.89 41.4019C217.381 40.5828 218.55 39.4033 219.396 37.8634C220.237 36.3235 220.778 34.5433 221.023 32.5174C221.214 29.6288 221.313 26.7128 221.313 23.7805V12.5152H229.116V47.7635H221.313V45.956C221.313 44.8475 221.482 43.6079 221.82 42.2373C222.159 40.8667 222.541 39.578 222.978 38.3712H221.897C221.22 41.0196 220.04 43.1875 218.358 44.8693C216.671 46.5567 214.711 47.6761 212.472 48.2276C210.233 48.7791 207.983 48.7955 205.717 48.2658C203.309 47.687 201.3 46.5676 199.689 44.9076C198.072 43.2475 196.882 41.3472 196.112 39.2012C195.342 37.0607 194.954 34.9037 194.954 32.7359H194.943Z" fill="white"/>
<path d="M248.928 15.186V47.764H241.125V21.0397C241.125 20.6083 240.983 20.2589 240.693 19.9913C240.404 19.7292 240.065 19.5927 239.683 19.5927H236.505V12.5157H246.258C246.978 12.5157 247.606 12.7669 248.136 13.2747C248.666 13.7826 248.928 14.4215 248.928 15.1914V15.186ZM244.81 7.94519C245.87 7.94519 246.798 7.54656 247.59 6.75477C248.387 5.96299 248.78 5.03468 248.78 3.97532C248.78 2.91597 248.382 1.9276 247.59 1.15765C246.793 0.387703 245.87 0 244.81 0C243.653 0 242.681 0.387703 241.884 1.15765C241.086 1.9276 240.693 2.86682 240.693 3.97532C240.693 5.08383 241.092 5.96299 241.884 6.75477C242.675 7.55202 243.653 7.94519 244.81 7.94519Z" fill="white"/>
<path d="M281.118 36.2748H289.353C288.435 39.7914 286.617 42.7293 283.897 45.0882C281.178 47.4472 277.503 48.6267 272.883 48.6267C268.935 48.6267 265.659 47.7257 263.06 45.9182C260.46 44.1108 258.555 41.801 257.353 38.9833C256.147 36.1656 255.546 33.2169 255.546 30.1371C255.546 27.0573 256.147 24.1086 257.353 21.2909C258.555 18.4732 260.46 16.1634 263.06 14.3559C265.659 12.5485 268.935 11.6475 272.883 11.6475C276.012 11.6475 278.71 12.2263 280.97 13.3785C283.231 14.5361 285.05 16.0487 286.426 17.9272C287.796 19.8056 288.774 21.8533 289.353 24.0649H281.118C280.49 22.525 279.491 21.2472 278.12 20.237C276.749 19.2268 275.002 18.719 272.883 18.719C270.765 18.719 268.924 19.2705 267.505 20.379C266.085 21.4875 265.036 22.9072 264.365 24.6383C263.688 26.3693 263.355 28.204 263.355 30.1262C263.355 32.0483 263.693 33.8831 264.365 35.6141C265.036 37.3451 266.085 38.7703 267.505 39.8734C268.924 40.9819 270.721 41.5334 272.883 41.5334C275.046 41.5334 276.733 41.0419 278.082 40.0536C279.431 39.0652 280.441 37.8038 281.118 36.2639V36.2748Z" fill="white"/>
<path d="M184.733 81.1342C184.733 83.3512 184.121 85.3607 182.898 87.1627C181.675 88.9702 179.862 90.3899 177.459 91.422C175.062 92.4595 172.212 92.9728 168.908 92.9728C165.604 92.9728 162.77 92.4541 160.395 91.422C158.019 90.3845 156.206 88.9811 154.956 87.1955C153.706 85.4153 153.083 83.4167 153.083 81.1997H160.509C160.509 82.9799 161.285 84.3177 162.836 85.2078C164.386 86.0979 166.434 86.5457 168.984 86.5457C170.284 86.5457 171.534 86.3655 172.736 86.0051C173.937 85.6447 174.909 85.0768 175.663 84.3068C176.411 83.5369 176.788 82.5485 176.788 81.3472C176.788 80.1458 176.389 79.2175 175.586 78.5677C174.783 77.9179 173.784 77.4592 172.588 77.1971C171.387 76.935 169.765 76.6784 167.712 76.4381C164.812 76.0995 162.426 75.7064 160.548 75.2477C158.675 74.789 157.075 73.8989 155.748 72.5774C154.421 71.256 153.76 69.3611 153.76 66.9093C153.76 64.8397 154.361 62.9831 155.562 61.345C156.763 59.7068 158.5 58.4071 160.777 57.4461C163.054 56.485 165.79 55.999 168.99 55.999C172.19 55.999 174.838 56.4796 177.088 57.4461C179.338 58.4126 181.063 59.7122 182.265 61.345C183.466 62.9831 184.067 64.8343 184.067 66.9093V67.4881H176.64V66.9093C176.64 65.4623 175.93 64.3592 174.505 63.5893C173.08 62.8193 171.267 62.4316 169.066 62.4316C167.068 62.4316 165.342 62.8029 163.89 63.551C162.437 64.2991 161.716 65.3913 161.716 66.8383C161.716 67.7066 162.055 68.3782 162.726 68.8588C163.404 69.3393 164.299 69.6888 165.424 69.9072C166.549 70.1256 167.909 70.355 169.514 70.5952C172.616 70.9338 175.177 71.3543 177.203 71.8566C179.228 72.3645 180.992 73.3474 182.488 74.8163C183.99 76.2852 184.738 78.393 184.738 81.1342H184.733Z" fill="white"/>
<path d="M225.518 83.6675C224.36 86.4852 222.591 88.7841 220.21 90.5643C217.824 92.3445 214.875 93.2345 211.364 93.2345C208.087 93.2345 205.466 92.4974 203.49 91.0339C201.513 89.565 200 87.7248 198.941 85.5078H197.783C198.553 88.1562 198.941 90.9738 198.941 93.9608V112.45H191.138V57.1235H198.941V57.6314C198.941 58.6907 198.821 59.7719 198.581 60.8804C198.34 61.9889 198.073 63.021 197.789 63.9875H198.946C199.045 63.6981 199.187 63.365 199.378 62.9773C200.148 61.7268 201.049 60.6074 202.086 59.619C203.124 58.6306 204.434 57.8279 206.023 57.2C207.612 56.572 209.464 56.2607 211.588 56.2607C215.055 56.2607 217.966 57.1508 220.325 58.931C222.684 60.7111 224.431 63.0101 225.561 65.8277C226.692 68.6454 227.26 71.616 227.26 74.7504C227.26 77.8848 226.681 80.8553 225.529 83.673L225.518 83.6675ZM216.672 66.5158C214.815 64.3971 212.325 63.3377 209.196 63.3377C207.176 63.3377 205.379 63.8182 203.817 64.7848C202.25 65.7458 201.049 67.0946 200.208 68.8311C199.367 70.5621 198.946 72.5388 198.946 74.7558C198.946 78.125 199.886 80.8717 201.764 82.9904C203.642 85.1091 206.122 86.1685 209.201 86.1685C211.222 86.1685 213.018 85.688 214.58 84.7214C216.142 83.7604 217.349 82.4116 218.19 80.6751C219.031 78.9441 219.451 76.9674 219.451 74.7504C219.451 71.3812 218.523 68.6345 216.672 66.5158Z" fill="white"/>
<path d="M239.633 80.9486C240.305 82.5157 241.38 83.8372 242.849 84.9239C244.318 86.0051 246.186 86.5511 248.446 86.5511C250.707 86.5511 252.717 85.9832 254.191 84.8529C255.66 83.7225 256.757 82.1936 257.478 80.266H265.063C264.293 83.586 262.595 86.5402 259.968 89.1122C257.342 91.6896 253.525 92.9783 248.517 92.9783C244.569 92.9783 241.282 92.0773 238.656 90.2698C236.029 88.4623 234.118 86.1525 232.911 83.3348C231.704 80.5172 231.104 77.5684 231.104 74.4887C231.104 71.4089 231.704 68.4601 232.911 65.6425C234.112 62.8248 236.029 60.5149 238.656 58.7075C241.282 56.9 244.564 55.999 248.517 55.999C252.471 55.999 255.764 56.9164 258.412 58.7457C261.06 60.575 262.999 63.0323 264.228 66.1121C265.456 69.1919 265.975 72.5665 265.778 76.2251H238.404C238.546 77.8142 238.956 79.3923 239.633 80.954V80.9486ZM243.39 63.7586C241.992 64.6486 240.911 65.779 240.141 67.1551C239.371 68.5257 238.863 69.9618 238.623 71.4526L258.27 71.5235C258.128 70.0765 257.669 68.6567 256.899 67.2643C256.129 65.8663 255.032 64.7142 253.612 63.7968C252.192 62.8849 250.472 62.4262 248.446 62.4262C246.421 62.4262 244.788 62.8739 243.39 63.764V63.7586Z" fill="white"/>
<path d="M308.448 92.1806H302.813C301.415 92.1806 300.323 91.7602 299.526 90.9192C298.728 90.0783 298.335 89.0026 298.335 87.7029C298.335 86.6927 298.455 85.6934 298.696 84.7051C298.936 83.7167 299.204 82.8375 299.487 82.0676H298.33C297.8 83.6075 297.003 85.1255 295.949 86.6163C294.89 88.107 293.661 89.3138 292.263 90.2257C290.434 91.3834 288.484 92.1752 286.415 92.612C284.345 93.0434 282.177 93.1199 279.917 92.8304C278.278 92.6393 276.739 92.0987 275.292 91.2032C273.844 90.3131 272.692 89.1227 271.824 87.6265C270.956 86.1357 270.524 84.4757 270.524 82.6409C270.524 79.7523 271.305 77.5134 272.872 75.9244C274.434 74.3354 276.471 73.2542 278.977 72.6753C280.135 72.3859 281.364 72.1566 282.663 71.9873C283.963 71.818 285.164 71.6597 286.273 71.5177C288.244 71.2774 289.789 71.059 290.898 70.8679L291.837 70.6494C293.328 70.36 294.415 69.9887 295.086 69.53C295.758 69.0713 295.976 68.3123 295.736 67.2529C295.545 66.341 295.059 65.5055 294.289 64.7629C293.519 64.0148 292.542 63.4414 291.362 63.0319C290.183 62.6223 288.845 62.4203 287.354 62.4203C285.525 62.4203 283.936 62.7316 282.587 63.3595C281.238 63.9875 280.206 64.8284 279.48 65.8878C278.759 66.9472 278.399 68.0775 278.399 69.2843H270.814C270.814 67.0236 271.453 64.8667 272.731 62.8189C274.008 60.7712 275.898 59.1221 278.399 57.8716C280.9 56.6211 283.936 55.9932 287.501 55.9932C291.067 55.9932 294.027 56.6321 296.528 57.9098C299.029 59.1876 300.907 60.8586 302.163 62.9281C303.414 64.9977 304.042 67.2639 304.042 69.7157V83.5856C304.042 83.9733 304.2 84.3228 304.511 84.6341C304.823 84.9453 305.199 85.1037 305.631 85.1037H308.448V92.1806ZM293.787 73.9422C292.58 74.2534 290.991 74.5811 289.02 74.9196C287.48 75.209 285.77 75.4985 283.892 75.7879C282.352 76.0281 280.976 76.6452 279.775 77.6281C278.568 78.6165 277.967 79.8779 277.967 81.4178C277.967 82.8648 278.475 84.0771 279.485 85.0655C280.495 86.0538 281.724 86.6654 283.171 86.9057C284.711 87.0477 286.038 87.0477 287.146 86.9057C288.255 86.7637 289.505 86.305 290.903 85.5351C292.35 84.716 293.514 83.6839 294.409 82.428C295.299 81.1775 295.84 79.8779 296.036 78.5291C296.178 77.6172 296.255 76.6288 296.255 75.5695V72.9702C295.823 73.3088 295.004 73.6309 293.798 73.9476L293.787 73.9422Z" fill="white"/>
<path d="M108.153 8.19043H32.9166C14.7382 8.19043 0 22.9286 0 41.107V63.916C0 82.0943 14.7382 96.8325 32.9166 96.8325H51.8267C51.7939 96.7943 87.8558 96.7069 87.8558 96.7069V131.84C87.8558 133.861 89.1445 135.647 91.0611 136.285C93.0051 136.913 95.1293 136.22 96.3306 134.571C97.1333 133.468 97.9415 132.365 98.7442 131.262C100.814 128.428 102.878 125.594 104.947 122.759C107.76 118.904 110.572 115.044 113.39 111.188C116.431 107.017 119.478 102.845 122.52 98.6727C124.862 95.4346 127.194 92.191 129.558 88.9692C131.814 85.9004 134.211 82.9298 136.422 79.8227C137.629 78.1299 138.721 76.3388 139.464 74.3894C140.245 72.3362 140.523 70.1738 140.758 68.006C141.261 63.359 141.069 58.6792 141.069 54.0213C141.069 49.7948 141.069 45.5628 141.069 41.3363V41.1125C141.069 22.9341 126.331 8.19589 108.153 8.19589V8.19043ZM9.27212 63.916V41.107C9.27212 28.0671 19.8821 17.4625 32.9166 17.4625H108.153C121.193 17.4625 131.797 28.0725 131.797 41.107V63.916C131.797 65.707 131.584 67.4544 131.202 69.1308L97.1224 68.9561V34.0137C97.1224 31.9932 95.8337 30.2076 93.917 29.5687C91.9731 28.9408 89.8489 29.6342 88.6475 31.2834L47.5947 87.5549H32.9111C19.8712 87.5549 9.26666 76.945 9.26666 63.9105L9.27212 63.916ZM125.31 79.1183L97.7176 116.944C97.532 117.201 97.1279 117.07 97.1279 116.753V92.12C97.1279 89.5481 95.0201 87.4403 92.4481 87.4403H60.0012C59.6572 87.4403 59.4551 87.0471 59.6572 86.7686L87.0476 49.2215C87.3042 48.872 87.8558 49.0522 87.8558 49.4836V72.0741C87.8558 72.2161 87.8503 72.5874 87.8448 72.9314C87.8175 77.8351 91.7983 78.1791 92.2516 78.2064L124.928 78.3702C125.31 78.3702 125.534 78.807 125.305 79.1183H125.31Z" fill="white"/>
</svg>
