<svg width="138" height="123" viewBox="0 0 138 123" fill="none" xmlns="http://www.w3.org/2000/svg">
<path d="M103.424 0H34.3308C15.3703 0 0 14.3622 0 32.0844V53.5594C0 71.2762 15.3703 85.6438 34.3308 85.6438H50.1376C50.1376 85.6057 84.0483 85.5238 84.0483 85.5238V117.51C84.0483 119.926 85.7016 122.037 88.1678 122.757C90.6341 123.461 93.3022 122.599 94.7699 120.619C97.4926 116.948 100.215 113.272 102.938 109.601C108.503 102.09 114.074 94.5786 119.64 87.0675C124.168 80.9583 128.697 74.849 133.226 68.7398C137.536 62.9251 137.918 56.8704 137.984 50.0194C138.027 45.8029 137.984 41.5919 137.858 37.3754C137.743 33.5408 137.896 29.4934 137.083 25.7242C135.867 20.0841 132.997 14.7985 128.855 10.5384C122.384 3.86736 113.054 0 103.424 0ZM11.6764 53.554V32.0789C11.6764 20.4059 21.8414 10.9039 34.3308 10.9039H103.424C115.918 10.9039 126.078 20.4005 126.078 32.0789V53.554C126.078 54.8577 125.936 56.1286 125.691 57.3668L95.7138 57.2195V25.4079C95.7138 22.9915 94.0606 20.8859 91.5944 20.1605C89.1281 19.4568 86.46 20.3187 84.9868 22.2987L46.1273 74.729H34.3254C21.8305 74.729 11.671 65.2325 11.671 53.554H11.6764ZM118.723 69.1325L96.4886 99.1333C96.254 99.4496 95.7193 99.2969 95.7193 98.9096V80.0964C95.7193 77.0636 93.0894 74.6036 89.8429 74.6036H61.3557C60.9629 74.6036 60.7337 74.189 60.9574 73.889L83.3172 43.7247C83.5409 43.4192 84.0483 43.5719 84.0483 43.9374V61.2178C84.0483 61.3487 84.0429 61.7087 84.0374 62.0306C84.0047 67.818 89.4228 68.0852 89.6519 68.0962L118.221 68.238C118.712 68.238 119.001 68.7562 118.723 69.1325Z" fill="#000000"/>
</svg>
